<mxfile host="Electron" modified="2024-01-01T23:08:36.219Z" agent="Mozilla/5.0 (Windows NT 10.0; Win64; x64) AppleWebKit/537.36 (KHTML, like Gecko) draw.io/22.1.16 Chrome/120.0.6099.109 Electron/28.1.0 Safari/537.36" etag="f6qX36RcbnR1Wrkb9glC" version="22.1.16" type="device">
  <diagram name="Page-1" id="Rewl87FcbkPTEKwuXqYp">
    <mxGraphModel dx="1750" dy="1035" grid="1" gridSize="10" guides="1" tooltips="1" connect="1" arrows="1" fold="1" page="1" pageScale="1" pageWidth="850" pageHeight="1100" math="0" shadow="0">
      <root>
        <mxCell id="0" />
        <mxCell id="1" parent="0" />
        <mxCell id="Uz8FM2e310Wbhu1RzGth-4" value="" style="edgeStyle=orthogonalEdgeStyle;rounded=0;orthogonalLoop=1;jettySize=auto;html=1;" edge="1" parent="1" source="Uz8FM2e310Wbhu1RzGth-2" target="Uz8FM2e310Wbhu1RzGth-3">
          <mxGeometry relative="1" as="geometry" />
        </mxCell>
        <mxCell id="Uz8FM2e310Wbhu1RzGth-6" value="" style="edgeStyle=orthogonalEdgeStyle;rounded=0;orthogonalLoop=1;jettySize=auto;html=1;" edge="1" parent="1" source="Uz8FM2e310Wbhu1RzGth-2" target="Uz8FM2e310Wbhu1RzGth-5">
          <mxGeometry relative="1" as="geometry" />
        </mxCell>
        <mxCell id="Uz8FM2e310Wbhu1RzGth-8" value="" style="edgeStyle=orthogonalEdgeStyle;rounded=0;orthogonalLoop=1;jettySize=auto;html=1;" edge="1" parent="1" source="Uz8FM2e310Wbhu1RzGth-2" target="Uz8FM2e310Wbhu1RzGth-7">
          <mxGeometry relative="1" as="geometry" />
        </mxCell>
        <mxCell id="Uz8FM2e310Wbhu1RzGth-10" value="" style="edgeStyle=orthogonalEdgeStyle;rounded=0;orthogonalLoop=1;jettySize=auto;html=1;" edge="1" parent="1" source="Uz8FM2e310Wbhu1RzGth-2" target="Uz8FM2e310Wbhu1RzGth-9">
          <mxGeometry relative="1" as="geometry" />
        </mxCell>
        <mxCell id="Uz8FM2e310Wbhu1RzGth-20" style="edgeStyle=orthogonalEdgeStyle;rounded=0;orthogonalLoop=1;jettySize=auto;html=1;exitX=0;exitY=1;exitDx=0;exitDy=0;" edge="1" parent="1" source="Uz8FM2e310Wbhu1RzGth-2" target="Uz8FM2e310Wbhu1RzGth-21">
          <mxGeometry relative="1" as="geometry">
            <mxPoint x="350" y="290" as="targetPoint" />
          </mxGeometry>
        </mxCell>
        <mxCell id="Uz8FM2e310Wbhu1RzGth-22" style="edgeStyle=orthogonalEdgeStyle;rounded=0;orthogonalLoop=1;jettySize=auto;html=1;exitX=1;exitY=1;exitDx=0;exitDy=0;" edge="1" parent="1" source="Uz8FM2e310Wbhu1RzGth-2" target="Uz8FM2e310Wbhu1RzGth-23">
          <mxGeometry relative="1" as="geometry">
            <mxPoint x="670.0000000000002" y="270" as="targetPoint" />
          </mxGeometry>
        </mxCell>
        <mxCell id="Uz8FM2e310Wbhu1RzGth-2" value="Donation" style="rounded=0;whiteSpace=wrap;html=1;" vertex="1" parent="1">
          <mxGeometry x="440" y="150" width="120" height="60" as="geometry" />
        </mxCell>
        <mxCell id="Uz8FM2e310Wbhu1RzGth-3" value="Donation_ID" style="ellipse;whiteSpace=wrap;html=1;rounded=0;" vertex="1" parent="1">
          <mxGeometry x="437.5" y="20" width="122.5" height="80" as="geometry" />
        </mxCell>
        <mxCell id="Uz8FM2e310Wbhu1RzGth-5" value="Donation_Date" style="ellipse;whiteSpace=wrap;html=1;rounded=0;" vertex="1" parent="1">
          <mxGeometry x="660" y="140" width="115" height="80" as="geometry" />
        </mxCell>
        <mxCell id="Uz8FM2e310Wbhu1RzGth-7" value="user_ID" style="ellipse;whiteSpace=wrap;html=1;rounded=0;" vertex="1" parent="1">
          <mxGeometry x="460" y="280" width="80" height="80" as="geometry" />
        </mxCell>
        <mxCell id="Uz8FM2e310Wbhu1RzGth-9" value="User_Name" style="ellipse;whiteSpace=wrap;html=1;rounded=0;" vertex="1" parent="1">
          <mxGeometry x="260" y="140" width="80" height="80" as="geometry" />
        </mxCell>
        <mxCell id="Uz8FM2e310Wbhu1RzGth-13" value="" style="edgeStyle=orthogonalEdgeStyle;rounded=0;orthogonalLoop=1;jettySize=auto;html=1;" edge="1" parent="1" source="Uz8FM2e310Wbhu1RzGth-11" target="Uz8FM2e310Wbhu1RzGth-12">
          <mxGeometry relative="1" as="geometry" />
        </mxCell>
        <mxCell id="Uz8FM2e310Wbhu1RzGth-17" value="" style="edgeStyle=orthogonalEdgeStyle;rounded=0;orthogonalLoop=1;jettySize=auto;html=1;" edge="1" parent="1" source="Uz8FM2e310Wbhu1RzGth-11" target="Uz8FM2e310Wbhu1RzGth-16">
          <mxGeometry relative="1" as="geometry" />
        </mxCell>
        <mxCell id="Uz8FM2e310Wbhu1RzGth-19" value="" style="edgeStyle=orthogonalEdgeStyle;rounded=0;orthogonalLoop=1;jettySize=auto;html=1;" edge="1" parent="1" source="Uz8FM2e310Wbhu1RzGth-11" target="Uz8FM2e310Wbhu1RzGth-18">
          <mxGeometry relative="1" as="geometry" />
        </mxCell>
        <mxCell id="Uz8FM2e310Wbhu1RzGth-11" value="User" style="rounded=0;whiteSpace=wrap;html=1;" vertex="1" parent="1">
          <mxGeometry x="437.5" y="560" width="120" height="60" as="geometry" />
        </mxCell>
        <mxCell id="Uz8FM2e310Wbhu1RzGth-12" value="User_ID" style="ellipse;whiteSpace=wrap;html=1;rounded=0;" vertex="1" parent="1">
          <mxGeometry x="457.5" y="410" width="80" height="80" as="geometry" />
        </mxCell>
        <mxCell id="Uz8FM2e310Wbhu1RzGth-16" value="Email" style="ellipse;whiteSpace=wrap;html=1;rounded=0;" vertex="1" parent="1">
          <mxGeometry x="257.5" y="550" width="80" height="80" as="geometry" />
        </mxCell>
        <mxCell id="Uz8FM2e310Wbhu1RzGth-18" value="Name" style="ellipse;whiteSpace=wrap;html=1;rounded=0;" vertex="1" parent="1">
          <mxGeometry x="657.5" y="550" width="80" height="80" as="geometry" />
        </mxCell>
        <mxCell id="Uz8FM2e310Wbhu1RzGth-21" value="Name" style="ellipse;whiteSpace=wrap;html=1;" vertex="1" parent="1">
          <mxGeometry x="290" y="250" width="120" height="80" as="geometry" />
        </mxCell>
        <mxCell id="Uz8FM2e310Wbhu1RzGth-23" value="Address" style="ellipse;whiteSpace=wrap;html=1;" vertex="1" parent="1">
          <mxGeometry x="600.0000000000002" y="260" width="120" height="80" as="geometry" />
        </mxCell>
        <mxCell id="Uz8FM2e310Wbhu1RzGth-27" value="" style="edgeStyle=orthogonalEdgeStyle;rounded=0;orthogonalLoop=1;jettySize=auto;html=1;" edge="1" parent="1" source="Uz8FM2e310Wbhu1RzGth-25" target="Uz8FM2e310Wbhu1RzGth-26">
          <mxGeometry relative="1" as="geometry" />
        </mxCell>
        <mxCell id="Uz8FM2e310Wbhu1RzGth-29" value="" style="edgeStyle=orthogonalEdgeStyle;rounded=0;orthogonalLoop=1;jettySize=auto;html=1;" edge="1" parent="1" source="Uz8FM2e310Wbhu1RzGth-25" target="Uz8FM2e310Wbhu1RzGth-28">
          <mxGeometry relative="1" as="geometry" />
        </mxCell>
        <mxCell id="Uz8FM2e310Wbhu1RzGth-31" value="" style="edgeStyle=orthogonalEdgeStyle;rounded=0;orthogonalLoop=1;jettySize=auto;html=1;" edge="1" parent="1" source="Uz8FM2e310Wbhu1RzGth-25" target="Uz8FM2e310Wbhu1RzGth-30">
          <mxGeometry relative="1" as="geometry" />
        </mxCell>
        <mxCell id="Uz8FM2e310Wbhu1RzGth-25" value="Volunteer" style="rounded=1;whiteSpace=wrap;html=1;" vertex="1" parent="1">
          <mxGeometry x="437.5" y="820" width="120" height="60" as="geometry" />
        </mxCell>
        <mxCell id="Uz8FM2e310Wbhu1RzGth-26" value="volunteer_name" style="ellipse;whiteSpace=wrap;html=1;rounded=1;" vertex="1" parent="1">
          <mxGeometry x="230" y="810" width="107.5" height="80" as="geometry" />
        </mxCell>
        <mxCell id="Uz8FM2e310Wbhu1RzGth-28" value="Volunteer_ID" style="ellipse;whiteSpace=wrap;html=1;rounded=1;" vertex="1" parent="1">
          <mxGeometry x="457.5" y="670" width="80" height="80" as="geometry" />
        </mxCell>
        <mxCell id="Uz8FM2e310Wbhu1RzGth-30" value="email" style="ellipse;whiteSpace=wrap;html=1;rounded=1;" vertex="1" parent="1">
          <mxGeometry x="657.5" y="810" width="80" height="80" as="geometry" />
        </mxCell>
      </root>
    </mxGraphModel>
  </diagram>
</mxfile>
